<?xml version="1.0" standalone="no"?>
<svg xmlns="http://www.w3.org/2000/svg" viewBox="0 0 131.321 36" width="131.321" height="36"><g fill="#2C75FF" color="#2C75FF" transform="translate(0 6.239999999999998) scale(0.5600001)"><svg width="50.0" height="42.0" x="0.0" y="0.0" viewBox="0 0 50 42"><path fill="currentColor" fill-rule="nonzero" d="M21.3 13.56l5.81 12.46-10.95-2.3-5.81-12.46 10.95 2.3zm20.86-9.73l5.81 12.46-10.95-2.3-5.81-12.46 10.95 2.3zm-8.91 36.83L8.44 36.19 16 24.99l12.1 2.54c.05.01.09.01.13.01.09 0 .18-.02.27-.06.01 0 .01-.01.01-.01.03-.01.05-.04.08-.06.03-.02.05-.05.08-.07.03-.03.07-.05.09-.08l8.11-12.01 11.19 2.35-14.81 23.06zm16.45-23.3c.01-.02.02-.03.03-.05.01-.05-.02-.08-.03-.13 0-.07.01-.13-.02-.2-.01-.02.01-.05-.01-.07L43.19 3c-.01-.02-.03-.02-.03-.03-.04-.07-.11-.11-.18-.16-.07-.05-.12-.11-.2-.14-.02-.01-.02-.02-.04-.03L30.22.01c-.04-.01-.08.03-.13.03-.07 0-.13 0-.19.02-.03.01-.06-.01-.08 0-.01.01-.02.03-.03.03-.05.03-.08.07-.12.12-.03.03-.08.03-.11.07l-8.11 12.01-12.1-2.54c-.05-.01-.08.02-.13.02-.07 0-.12 0-.19.02-.03.01-.06-.01-.08.01-.02.01-.02.03-.03.03-.05.03-.08.07-.12.12-.03.03-.08.03-.11.07L.34 22.37c-.02.02 0 .05-.02.08-.04.08-.04.15-.05.23-.01.08-.02.16.01.24.02.03 0 .05.01.08l6.49 13.91c.01.02.03.03.05.05.02.04.04.06.07.09.03.03.05.06.08.08.01.01.01.03.02.04 0 0 .01 0 .01.01.05.03.11.04.17.05.03.01.04.04.06.04l26.2 4.72a.61.61 0 0 0 .48-.12c.03-.02.05-.05.08-.07.03-.03.07-.05.1-.09l15.54-24.18c.02-.02 0-.05.01-.07.02-.04.03-.07.05-.1z"></path></svg></g><path fill="#2C75FF" fill-rule="nonzero" d="M8.18 6.05L8.21 8.94Q7.65 8.88 6.76 8.88L6.76 8.88L3.21 8.88L3.21 15.68L0 15.68L0 0.01Q0.32 0.04 0.73 0.05L0.73 0.05L1.59 0.07Q2.48 0.09 3.45 0.09L3.45 0.09Q6.33 0.09 8.95 0L8.95 0Q8.82 1.03 8.82 2.75L8.82 2.75Q8.82 2.94 8.85 3.04L8.85 3.04L8.82 3.07Q8.20 2.89 7.09 2.89L7.09 2.89L3.21 2.89L3.21 6.12L6.63 6.12Q7.92 6.12 8.18 6.05L8.18 6.05ZM19.77 14.95L19.77 14.95Q18.11 15.86 16.76 15.86Q15.41 15.86 14.45 15.60Q13.49 15.35 12.82 14.86L12.82 14.86Q11.46 13.86 11.46 11.98L11.46 11.98Q11.46 10.29 13.13 9.16L13.13 9.16Q14.93 7.95 18.02 7.95L18.02 7.95L18.49 7.96Q18.63 7.97 18.81 7.97Q18.98 7.98 19.13 8.00L19.13 8.00Q19.03 6.13 17.51 5.81L17.51 5.81Q17.00 5.71 16.44 5.71Q15.87 5.71 15.32 5.81Q14.78 5.91 14.26 6.07L14.26 6.07Q13.13 6.43 12.63 6.90L12.63 6.90L12.60 6.88L12.25 4.29Q14.32 3.20 16.78 3.20L16.78 3.20Q20.60 3.20 21.67 5.95L21.67 5.95Q22.01 6.83 22.01 7.93L22.01 7.93L22.01 12.18Q22.01 13.54 22.97 14.03L22.97 14.03L20.85 15.97Q20.18 15.62 19.77 14.95ZM19.14 12.56L19.14 10.11Q18.82 10.05 18.48 10.05L18.48 10.05L18.01 10.05Q15.42 10.05 14.72 11.20L14.72 11.20Q14.51 11.54 14.51 11.92Q14.51 12.29 14.64 12.58Q14.78 12.87 15.09 13.05L15.09 13.05Q15.70 13.41 16.90 13.41Q18.11 13.41 19.15 12.83L19.15 12.83Q19.14 12.70 19.14 12.56L19.14 12.56ZM34.97 11.68L35.24 14.54Q33.93 15.86 31.13 15.86L31.13 15.86Q28.41 15.86 26.68 14.20L26.68 14.20Q24.94 12.53 24.94 9.75L24.94 9.75Q24.94 6.93 26.66 5.11L26.66 5.11Q28.49 3.20 31.55 3.20L31.55 3.20Q33.71 3.20 35.18 4.15L35.18 4.15L34.71 7.15L34.63 7.14Q34.07 6.46 33.45 6.25L33.45 6.25Q32.44 5.89 31.43 5.89Q30.42 5.89 29.85 6.15Q29.27 6.41 28.86 6.87L28.86 6.87Q28.04 7.80 28.04 9.35L28.04 9.35Q28.04 12.09 29.94 12.94L29.94 12.94Q30.60 13.22 31.33 13.22Q32.06 13.22 32.61 13.09Q33.15 12.96 33.60 12.74L33.60 12.74Q34.55 12.27 34.89 11.65L34.89 11.65L34.97 11.68ZM43.13 13.10L43.13 13.10Q44.64 13.10 45.20 12.32L45.20 12.32L45.29 12.32L45.33 15.04Q44.75 15.61 43.20 15.80L43.20 15.80Q42.77 15.86 42.15 15.86Q41.52 15.86 40.79 15.62Q40.05 15.39 39.54 14.86L39.54 14.86Q38.47 13.77 38.47 11.45L38.47 11.45L38.47 6.13L36.70 6.13Q36.69 5.79 36.69 5.44L36.69 5.44L36.69 3.63Q36.69 3.43 36.70 3.43L36.70 3.43L38.47 3.43L38.47 0.09L41.34 0.09L41.34 3.43L44.57 3.43L44.57 6.13L41.34 6.13L41.34 10.91Q41.34 12.75 42.36 13.01L42.36 13.01Q42.69 13.10 43.13 13.10ZM55.04 15.68L55.04 14.61Q53.54 15.86 51.77 15.86L51.77 15.86Q49.88 15.86 48.80 14.58L48.80 14.58Q47.77 13.34 47.77 11.17L47.77 11.17L47.77 6.52Q47.77 4.17 47.67 3.83Q47.57 3.48 47.52 3.39L47.52 3.39Q48.06 3.43 48.64 3.43L48.64 3.43L49.62 3.43Q50.00 3.43 50.64 3.40L50.64 3.40L50.64 10.18Q50.64 12.60 51.95 12.98L51.95 12.98Q52.35 13.10 52.82 13.10L52.82 13.10Q54.20 13.10 55.04 12.09L55.04 12.09L55.04 3.43L57.95 3.43L57.95 14.18Q57.95 15.21 58.04 15.68L58.04 15.68L55.04 15.68ZM64.45 7.15L64.45 14.37Q64.45 15.38 64.50 15.68L64.50 15.68L61.58 15.68L61.58 3.43L64.45 3.43L64.45 4.34Q65.45 3.20 66.54 3.20Q67.64 3.20 68.27 3.47L68.27 3.47L68.06 6.62L68.02 6.66Q67.61 5.93 66.32 5.93L66.32 5.93Q65.82 5.93 65.31 6.26Q64.80 6.60 64.45 7.15L64.45 7.15ZM69.12 9.66L69.12 9.66Q69.12 8.29 69.59 7.11Q70.05 5.94 70.91 5.06L70.91 5.06Q72.74 3.20 75.69 3.20L75.69 3.20Q78.19 3.20 79.70 4.85L79.70 4.85Q81.19 6.45 81.19 8.86L81.19 8.86Q81.19 9.79 81.05 10.13L81.05 10.13Q79.88 10.45 76.28 10.45L76.28 10.45L72.15 10.45Q72.46 11.71 73.57 12.40Q74.68 13.10 76.46 13.10L76.46 13.10Q78.33 13.10 79.66 12.43L79.66 12.43Q80.02 12.26 80.19 12.11L80.19 12.11Q80.17 12.60 80.13 13.11L80.13 13.11L80.00 14.94Q79.11 15.55 77.12 15.79L77.12 15.79Q76.54 15.86 76.00 15.86L76.00 15.86Q73.02 15.86 71.07 14.12L71.07 14.12Q69.12 12.38 69.12 9.66ZM78.07 8.18L78.07 8.18Q77.59 5.66 75.33 5.66L75.33 5.66Q73.55 5.66 72.62 7.20L72.62 7.20Q72.34 7.66 72.19 8.23L72.19 8.23Q72.47 8.24 72.88 8.25L72.88 8.25L73.75 8.25Q74.18 8.26 74.58 8.26L74.58 8.26L75.25 8.26Q75.84 8.26 76.42 8.25L76.42 8.25L77.38 8.21Q77.77 8.20 78.07 8.18ZM88.62 9.82L86.12 9.82Q85.23 9.82 84.67 9.88L84.67 9.88L84.70 6.98Q84.96 7.05 86.25 7.05L86.25 7.05L88.62 7.05L88.62 4.80Q88.62 3.52 88.55 3.26L88.55 3.26L91.44 3.22Q91.38 3.79 91.38 4.68L91.38 4.68L91.38 7.05L93.74 7.05Q95.02 7.05 95.29 6.98L95.29 6.98L95.32 9.88Q94.76 9.82 93.87 9.82L93.87 9.82L91.38 9.82L91.38 12.42Q91.38 13.31 91.44 13.88L91.44 13.88L88.55 13.84Q88.62 13.57 88.62 12.29L88.62 12.29L88.62 9.82Z" transform="translate(36, 10.161)"></path></svg>
